<svg width="40" height="40" viewBox="0 0 40 40" fill="none" xmlns="http://www.w3.org/2000/svg">
  <!-- Background Circle -->
  <circle cx="20" cy="20" r="20" fill="url(#gradient1)"/>
  
  <!-- House Shape -->
  <path d="M10 22L20 12L30 22V32C30 33.1046 29.1046 34 28 34H12C10.8954 34 10 33.1046 10 32V22Z" fill="white"/>
  
  <!-- Roof -->
  <path d="M8 22L20 10L32 22H28L20 14L12 22H8Z" fill="#EC4899"/>
  
  <!-- Door -->
  <rect x="17" y="26" width="6" height="8" fill="#6B46C1"/>
  
  <!-- Window -->
  <rect x="13" y="24" width="3" height="3" fill="#6B46C1"/>
  <rect x="24" y="24" width="3" height="3" fill="#6B46C1"/>
  
  <!-- Modern Pattern (simplified) -->
  <rect x="10" y="28" width="20" height="1" fill="#EC4899" opacity="0.7"/>
  <rect x="10" y="30" width="20" height="1" fill="#EC4899" opacity="0.7"/>
  <rect x="15" y="22" width="1" height="12" fill="#EC4899" opacity="0.5"/>
  <rect x="25" y="22" width="1" height="12" fill="#EC4899" opacity="0.5"/>
  
  <!-- Gradient Definition -->
  <defs>
    <linearGradient id="gradient1" x1="0%" y1="0%" x2="100%" y2="100%">
      <stop offset="0%" style="stop-color:#6B46C1;stop-opacity:1" />
      <stop offset="100%" style="stop-color:#8B5CF6;stop-opacity:1" />
    </linearGradient>
  </defs>
</svg>